<?xml version="1.0" encoding="UTF-8" standalone="no" ?>
<!DOCTYPE svg PUBLIC "-//W3C//DTD SVG 1.1//EN" "http://www.w3.org/Graphics/SVG/1.1/DTD/svg11.dtd">
<svg xmlns="http://www.w3.org/2000/svg" xmlns:xlink="http://www.w3.org/1999/xlink" version="1.1" width="500" height="500" viewBox="0 0 500 500" xml:space="preserve">
<desc>Created with Fabric.js 5.3.0</desc>
<defs>
</defs>
<g transform="matrix(1 0 0 1 261.3471515658 195.4597386556)" id="DEscPV0kACcfq9s52Ffsj"  >
<g style=""   >
		<g transform="matrix(0 3.761542832 -3.7874177659 0 0.1618118087 -0.1045431595)" id="4kUmMROk_APa0OadJ53EI"  >
<path style="stroke: rgb(209,139,232); stroke-width: 0; stroke-dasharray: none; stroke-linecap: butt; stroke-dashoffset: 0; stroke-linejoin: miter; stroke-miterlimit: 4; fill: rgb(0,0,0); fill-rule: nonzero; opacity: 1;"  transform=" translate(-29.4117647059, -25.4713354054)" d="M 44.11765 0 L 58.82353 25.47134 L 44.11765 50.94268 L 14.705889999999997 50.94268 L 0.000009999999996068709 25.47134 L 14.705889999999997 0 z" stroke-linecap="round" />
</g>
		<g transform="matrix(0.5 -0.8660254038 0.8660254038 0.5 0.1587301587 28.9085908945)" id="awRWnA2lvTUxwfNhcH1LU"  >
<path style="stroke: rgb(255,255,255); stroke-width: 1; stroke-dasharray: none; stroke-linecap: butt; stroke-dashoffset: 0; stroke-linejoin: miter; stroke-miterlimit: 4; fill: rgb(255,255,255); fill-rule: nonzero; opacity: 1;"  transform=" translate(0.000005, 0)" d="M -15.87302 -27.46032 L -15.87302 8.730160000000001 L 15.87301 27.460320000000003 L 15.87301 -8.730159999999998 z" stroke-linecap="round" />
</g>
		<g transform="matrix(-1 0 0 1 -24.9206340476 -14.0891937717)" id="6loH2VhhI4ExisaWzYLzc"  >
<path style="stroke: rgb(255,255,255); stroke-width: 1; stroke-dasharray: none; stroke-linecap: butt; stroke-dashoffset: 0; stroke-linejoin: miter; stroke-miterlimit: 4; fill: rgb(255,255,255); fill-rule: nonzero; opacity: 1;"  transform=" translate(0.000005, 0)" d="M -15.87302 -27.46032 L -15.87302 8.730160000000001 L 15.87301 27.460320000000003 L 15.87301 -8.730159999999998 z" stroke-linecap="round" />
</g>
		<g transform="matrix(-1 0 0 1 43.0158730159 25.1171573394)" id="0Sd6tAAlR5zqt33RjGq35"  >
<path style="stroke: rgb(255,255,255); stroke-width: 1; stroke-dasharray: none; stroke-linecap: butt; stroke-dashoffset: 0; stroke-linejoin: miter; stroke-miterlimit: 4; fill: rgb(255,255,255); fill-rule: nonzero; opacity: 1;"  transform=" translate(-0.000005, 0)" d="M -34.7619 -59.36508 L -16.031739999999996 -48.888889999999996 L -16.031739999999996 8.253970000000002 L 34.76191 37.46032 L 34.76191 59.365080000000006 L -34.7619 19.682540000000003 z" stroke-linecap="round" />
</g>
		<g transform="matrix(1 0 0 1 0 0)" id="vX2Y6sZymfGQwYhP0MFem"  >
<path style="stroke: rgb(0,0,0); stroke-width: 1; stroke-dasharray: none; stroke-linecap: butt; stroke-dashoffset: 0; stroke-linejoin: miter; stroke-miterlimit: 4; fill: none; fill-rule: nonzero; opacity: 1;"  transform=" translate(0, 0)" d="M -96.66667 -54.56034 L -0.15872999999999138 -110.75082 L 96.66667000000001 -54.560340000000004 L 96.66667000000001 54.540259999999996 L -0.15872999999999138 110.75082 L -96.66667 54.54026 z" stroke-linecap="round" />
</g>
		<g transform="matrix(1 0 0 1 0.1587301587 -64.9895254703)" id="cT4JSkLflovXE8cbCHCCU"  >
<path style="stroke: rgb(255,255,255); stroke-width: 1; stroke-dasharray: none; stroke-linecap: butt; stroke-dashoffset: 0; stroke-linejoin: miter; stroke-miterlimit: 4; fill: rgb(255,255,255); fill-rule: nonzero; opacity: 1;"  transform=" translate(0, 0)" d="M -68.88889 14.28571 L -50.158730000000006 25.07936 L -0.1587300000000056 -3.4920699999999982 L 49.52381 25.07936 L 68.88889 14.285710000000002 L -0.15872999999999138 -25.079369999999997 z" stroke-linecap="round" />
</g>
		<g transform="matrix(1 0 0 1 -43.8095238095 25.1171579743)" id="AE3FmfgXNGTj9dQlHuETa"  >
<path style="stroke: rgb(255,255,255); stroke-width: 1; stroke-dasharray: none; stroke-linecap: butt; stroke-dashoffset: 0; stroke-linejoin: miter; stroke-miterlimit: 4; fill: rgb(255,255,255); fill-rule: nonzero; opacity: 1;"  transform=" translate(0, 0)" d="M -34.7619 -59.36508 L -16.031739999999996 -48.888889999999996 L -16.031739999999996 8.253970000000002 L 34.76191 37.46032 L 34.76191 59.365080000000006 L -34.7619 19.682540000000003 z" stroke-linecap="round" />
</g>
		<g transform="matrix(1 0 0 1 25.2380952381 -14.089191232)" id="vDmdwu1_ZRwTSG9QGoy4w"  >
<path style="stroke: rgb(255,255,255); stroke-width: 1; stroke-dasharray: none; stroke-linecap: butt; stroke-dashoffset: 0; stroke-linejoin: miter; stroke-miterlimit: 4; fill: rgb(255,255,255); fill-rule: nonzero; opacity: 1;"  transform=" translate(0, 0)" d="M -15.87302 -27.46032 L -15.87302 8.730160000000001 L 15.87301 27.460320000000003 L 15.87301 -8.730159999999998 z" stroke-linecap="round" />
</g>
</g>
</g>
</svg>